<svg width="32" height="32" viewBox="0 0 32 32" fill="none" xmlns="http://www.w3.org/2000/svg">
<path d="M17.3334 2.6665H8.00004C7.2928 2.6665 6.61452 2.94746 6.11442 3.44755C5.61433 3.94765 5.33337 4.62593 5.33337 5.33317V26.6665C5.33337 27.3737 5.61433 28.052 6.11442 28.5521C6.61452 29.0522 7.2928 29.3332 8.00004 29.3332H24C24.7073 29.3332 25.3856 29.0522 25.8857 28.5521C26.3858 28.052 26.6667 27.3737 26.6667 26.6665V11.9998H17.3334V2.6665Z" fill="#A183E4"/>
<path d="M26.6667 11.9998L17.3334 2.6665V11.9998H26.6667Z" fill="#3E1E86"/>
<path d="M19 27L18.3493 24.397C18.2223 23.8891 18.1588 23.6351 18.0265 23.4285C17.9096 23.2457 17.7543 23.0904 17.5715 22.9735C17.3649 22.8412 17.1109 22.7777 16.603 22.6507L14 22L16.603 21.3493C17.1109 21.2223 17.3649 21.1588 17.5715 21.0265C17.7543 20.9096 17.9096 20.7543 18.0265 20.5715C18.1588 20.3649 18.2223 20.1109 18.3493 19.603L19 17L19.6507 19.603C19.7777 20.1109 19.8412 20.3649 19.9735 20.5715C20.0904 20.7543 20.2457 20.9096 20.4285 21.0265C20.6351 21.1588 20.8891 21.2223 21.397 21.3493L24 22L21.397 22.6507C20.8891 22.7777 20.6351 22.8412 20.4285 22.9735C20.2457 23.0904 20.0904 23.2457 19.9735 23.4285C19.8412 23.6351 19.7777 23.8891 19.6507 24.397L19 27Z" fill="white"/>
<path d="M12 18L11.4794 15.9176C11.3778 15.5113 11.327 15.3081 11.2212 15.1428C11.1277 14.9965 11.0035 14.8723 10.8572 14.7788C10.6919 14.673 10.4887 14.6222 10.0824 14.5206L8 14L10.0824 13.4794C10.4887 13.3778 10.6919 13.327 10.8572 13.2212C11.0035 13.1277 11.1277 13.0035 11.2212 12.8572C11.327 12.6919 11.3778 12.4887 11.4794 12.0824L12 10L12.5206 12.0824C12.6222 12.4887 12.673 12.6919 12.7788 12.8572C12.8723 13.0035 12.9965 13.1277 13.1428 13.2212C13.3081 13.327 13.5113 13.3778 13.9176 13.4794L16 14L13.9176 14.5206C13.5113 14.6222 13.3081 14.673 13.1428 14.7788C12.9965 14.8723 12.8723 14.9965 12.7788 15.1428C12.673 15.3081 12.6222 15.5113 12.5206 15.9176L12 18Z" fill="white"/>
</svg>
