<svg width="95" height="20" viewBox="0 0 95 20" fill="none" xmlns="http://www.w3.org/2000/svg">
<path d="M11.096 1.63752V14.6669H8.48263V9.12285H2.9013V14.6669H0.287964V1.63752H2.9013V6.99485H8.48263V1.63752H11.096Z" fill="#6941C6"/>
<path d="M18.2602 14.8348C17.2646 14.8348 16.3686 14.6171 15.5722 14.1815C14.7757 13.7335 14.1473 13.1051 13.6868 12.2962C13.2388 11.4873 13.0148 10.554 13.0148 9.49618C13.0148 8.4384 13.2451 7.50507 13.7055 6.69618C14.1784 5.88729 14.8193 5.26507 15.6282 4.82952C16.4371 4.38152 17.3393 4.15752 18.3348 4.15752C19.3304 4.15752 20.2326 4.38152 21.0415 4.82952C21.8504 5.26507 22.485 5.88729 22.9455 6.69618C23.4184 7.50507 23.6548 8.4384 23.6548 9.49618C23.6548 10.554 23.4122 11.4873 22.9268 12.2962C22.4539 13.1051 21.8068 13.7335 20.9855 14.1815C20.1766 14.6171 19.2682 14.8348 18.2602 14.8348ZM18.2602 12.5575C18.7331 12.5575 19.1748 12.4455 19.5855 12.2215C20.0086 11.9851 20.3446 11.6366 20.5935 11.1762C20.8424 10.7157 20.9668 10.1557 20.9668 9.49618C20.9668 8.51307 20.7055 7.76018 20.1828 7.23752C19.6726 6.7024 19.0442 6.43485 18.2975 6.43485C17.5508 6.43485 16.9224 6.7024 16.4122 7.23752C15.9144 7.76018 15.6655 8.51307 15.6655 9.49618C15.6655 10.4793 15.9082 11.2384 16.3935 11.7735C16.8913 12.2962 17.5135 12.5575 18.2602 12.5575Z" fill="#6941C6"/>
<path d="M35.3345 4.32552V14.6669H32.7025V13.3602C32.3665 13.8082 31.9247 14.1628 31.3771 14.4242C30.842 14.6731 30.2571 14.7975 29.6225 14.7975C28.8136 14.7975 28.098 14.6295 27.4758 14.2935C26.8536 13.9451 26.362 13.4411 26.0011 12.7815C25.6527 12.1095 25.4785 11.3131 25.4785 10.3922V4.32552H28.0918V10.0188C28.0918 10.8402 28.2971 11.4748 28.7078 11.9228C29.1185 12.3584 29.6785 12.5762 30.3878 12.5762C31.1096 12.5762 31.6758 12.3584 32.0865 11.9228C32.4971 11.4748 32.7025 10.8402 32.7025 10.0188V4.32552H35.3345Z" fill="#6941C6"/>
<path d="M40.5263 5.93085C40.8623 5.38329 41.2978 4.95396 41.8329 4.64285C42.3805 4.33174 43.0027 4.17618 43.6996 4.17618V6.92018H43.0089C42.1876 6.92018 41.5654 7.11307 41.1423 7.49885C40.7316 7.88463 40.5263 8.55663 40.5263 9.51485V14.6669H37.9129V4.32552H40.5263V5.93085Z" fill="#6941C6"/>
<path d="M49.5105 4.15752C50.282 4.15752 50.9603 4.31307 51.5451 4.62418C52.13 4.92285 52.5905 5.31485 52.9265 5.80018V4.32552H55.5585V14.7415C55.5585 15.6997 55.3656 16.5522 54.9798 17.2988C54.594 18.058 54.0154 18.6553 53.2438 19.0908C52.4723 19.5388 51.5389 19.7629 50.4438 19.7629C48.9754 19.7629 47.7683 19.4206 46.8225 18.7362C45.8891 18.0517 45.3603 17.1184 45.2358 15.9362H47.8305C47.9674 16.4091 48.2598 16.7824 48.7078 17.0562C49.1683 17.3424 49.722 17.4855 50.3691 17.4855C51.1283 17.4855 51.7443 17.2553 52.2171 16.7948C52.69 16.3468 52.9265 15.6624 52.9265 14.7415V13.1362C52.5905 13.6215 52.1238 14.026 51.5265 14.3495C50.9416 14.6731 50.2696 14.8348 49.5105 14.8348C48.6394 14.8348 47.8429 14.6108 47.1211 14.1628C46.3994 13.7148 45.8269 13.0864 45.4038 12.2775C44.9931 11.4562 44.7878 10.5166 44.7878 9.45885C44.7878 8.41352 44.9931 7.4864 45.4038 6.67752C45.8269 5.86863 46.3931 5.2464 47.1025 4.81085C47.8243 4.37529 48.6269 4.15752 49.5105 4.15752ZM52.9265 9.49618C52.9265 8.86152 52.802 8.32018 52.5531 7.87218C52.3043 7.41174 51.9683 7.06329 51.5451 6.82685C51.122 6.57796 50.6678 6.45352 50.1825 6.45352C49.6971 6.45352 49.2491 6.57174 48.8385 6.80818C48.4278 7.04463 48.0918 7.39307 47.8305 7.85352C47.5816 8.30152 47.4571 8.83663 47.4571 9.45885C47.4571 10.0811 47.5816 10.6286 47.8305 11.1015C48.0918 11.562 48.4278 11.9166 48.8385 12.1655C49.2616 12.4144 49.7096 12.5388 50.1825 12.5388C50.6678 12.5388 51.122 12.4206 51.5451 12.1842C51.9683 11.9353 52.3043 11.5868 52.5531 11.1388C52.802 10.6784 52.9265 10.1308 52.9265 9.49618Z" fill="#6941C6"/>
<path d="M60.7242 0.853516V14.6669H58.1108V0.853516H60.7242Z" fill="#6941C6"/>
<path d="M62.6342 9.45885C62.6342 8.41352 62.8395 7.4864 63.2502 6.67752C63.6733 5.86863 64.2395 5.2464 64.9488 4.81085C65.6706 4.37529 66.4733 4.15752 67.3568 4.15752C68.1284 4.15752 68.8004 4.31307 69.3728 4.62418C69.9577 4.93529 70.4244 5.32729 70.7728 5.80018V4.32552H73.4048V14.6669H70.7728V13.1548C70.4368 13.6402 69.9702 14.0446 69.3728 14.3682C68.7879 14.6793 68.1097 14.8348 67.3382 14.8348C66.467 14.8348 65.6706 14.6108 64.9488 14.1628C64.2395 13.7148 63.6733 13.0864 63.2502 12.2775C62.8395 11.4562 62.6342 10.5166 62.6342 9.45885ZM70.7728 9.49618C70.7728 8.86152 70.6484 8.32018 70.3995 7.87218C70.1506 7.41174 69.8146 7.06329 69.3915 6.82685C68.9684 6.57796 68.5142 6.45352 68.0288 6.45352C67.5435 6.45352 67.0955 6.57174 66.6848 6.80818C66.2742 7.04463 65.9382 7.39307 65.6768 7.85352C65.4279 8.30152 65.3035 8.83663 65.3035 9.45885C65.3035 10.0811 65.4279 10.6286 65.6768 11.1015C65.9382 11.562 66.2742 11.9166 66.6848 12.1655C67.1079 12.4144 67.5559 12.5388 68.0288 12.5388C68.5142 12.5388 68.9684 12.4206 69.3915 12.1842C69.8146 11.9353 70.1506 11.5868 70.3995 11.1388C70.6484 10.6784 70.7728 10.1308 70.7728 9.49618Z" fill="#6941C6"/>
<path d="M79.9145 14.8348C79.0683 14.8348 78.3092 14.6855 77.6372 14.3868C76.9652 14.0757 76.4301 13.6588 76.0319 13.1362C75.6461 12.6135 75.4345 12.0348 75.3972 11.4002H78.0292C78.079 11.7984 78.2719 12.1282 78.6079 12.3895C78.9563 12.6508 79.3856 12.7815 79.8959 12.7815C80.3936 12.7815 80.7794 12.682 81.0532 12.4828C81.3394 12.2837 81.4825 12.0286 81.4825 11.7175C81.4825 11.3815 81.3083 11.1326 80.9599 10.9708C80.6239 10.7966 80.0825 10.61 79.3359 10.4108C78.5643 10.2242 77.9296 10.0313 77.4319 9.83218C76.9465 9.63307 76.5234 9.32818 76.1625 8.91752C75.8141 8.50685 75.6399 7.95307 75.6399 7.25618C75.6399 6.68374 75.8016 6.16107 76.1252 5.68818C76.4612 5.21529 76.9341 4.84196 77.5439 4.56818C78.1661 4.2944 78.8941 4.15752 79.7279 4.15752C80.9599 4.15752 81.943 4.46863 82.6772 5.09085C83.4114 5.70063 83.8159 6.52818 83.8905 7.57352H81.3892C81.3519 7.16285 81.1776 6.83929 80.8665 6.60285C80.5679 6.35396 80.1634 6.22952 79.6532 6.22952C79.1803 6.22952 78.8132 6.31663 78.5519 6.49085C78.303 6.66507 78.1785 6.90774 78.1785 7.21885C78.1785 7.56729 78.3527 7.83485 78.7012 8.02152C79.0496 8.19574 79.591 8.37618 80.3252 8.56285C81.0719 8.74952 81.6879 8.9424 82.1732 9.14152C82.6585 9.34063 83.0754 9.65174 83.4239 10.0748C83.7847 10.4855 83.9714 11.0331 83.9839 11.7175C83.9839 12.3149 83.8159 12.85 83.4799 13.3228C83.1563 13.7957 82.6834 14.1691 82.0612 14.4428C81.4514 14.7042 80.7359 14.8348 79.9145 14.8348Z" fill="#6941C6"/>
<path d="M90.0864 14.8348C89.2402 14.8348 88.481 14.6855 87.8091 14.3868C87.1371 14.0757 86.6019 13.6588 86.2037 13.1362C85.8179 12.6135 85.6064 12.0348 85.5691 11.4002H88.201C88.2508 11.7984 88.4437 12.1282 88.7797 12.3895C89.1282 12.6508 89.5575 12.7815 90.0677 12.7815C90.5655 12.7815 90.9513 12.682 91.2251 12.4828C91.5113 12.2837 91.6544 12.0286 91.6544 11.7175C91.6544 11.3815 91.4802 11.1326 91.1317 10.9708C90.7957 10.7966 90.2544 10.61 89.5077 10.4108C88.7362 10.2242 88.1015 10.0313 87.6037 9.83218C87.1184 9.63307 86.6953 9.32818 86.3344 8.91752C85.9859 8.50685 85.8117 7.95307 85.8117 7.25618C85.8117 6.68374 85.9735 6.16107 86.2971 5.68818C86.6331 5.21529 87.1059 4.84196 87.7157 4.56818C88.3379 4.2944 89.0659 4.15752 89.8997 4.15752C91.1317 4.15752 92.1148 4.46863 92.849 5.09085C93.5833 5.70063 93.9877 6.52818 94.0624 7.57352H91.5611C91.5237 7.16285 91.3495 6.83929 91.0384 6.60285C90.7397 6.35396 90.3353 6.22952 89.8251 6.22952C89.3522 6.22952 88.9851 6.31663 88.7237 6.49085C88.4748 6.66507 88.3504 6.90774 88.3504 7.21885C88.3504 7.56729 88.5246 7.83485 88.8731 8.02152C89.2215 8.19574 89.7628 8.37618 90.497 8.56285C91.2437 8.74952 91.8597 8.9424 92.345 9.14152C92.8304 9.34063 93.2473 9.65174 93.5957 10.0748C93.9566 10.4855 94.1433 11.0331 94.1557 11.7175C94.1557 12.3149 93.9877 12.85 93.6517 13.3228C93.3282 13.7957 92.8553 14.1691 92.233 14.4428C91.6233 14.7042 90.9077 14.8348 90.0864 14.8348Z" fill="#6941C6"/>
</svg>
